<svg xmlns="http://www.w3.org/2000/svg" width="1440" height="686" viewBox="0 0 1440 686"><rect width="1440" height="686" fill="#FFFFFF"/><rect x="50.0" y="33.0" width="250.4" height="299.0" rx="16" fill="#EEF3F9" stroke="#CED4DD" stroke-width="3"/><path d="M 126.8 166.8 L 164.2 149.2 L 170.8 164.6 L 133.4 182.2 Z" fill="#E6C78F" stroke="#1F3864" stroke-width="3" stroke-linecap="round" stroke-linejoin="round"/><path d="M 223.6 166.8 L 186.2 149.2 L 179.6 164.6 L 217.0 182.2 Z" fill="#C79A5C" stroke="#1F3864" stroke-width="3" stroke-linecap="round" stroke-linejoin="round"/><circle cx="175.2" cy="164.6" r="12.1" fill="#009688" stroke="#1F3864" stroke-width="3"/><text x="175.2" y="308.0" font-family="DejaVu Sans" font-size="28" font-weight="bold" fill="#1F3864" text-anchor="middle">favour</text><rect x="322.4" y="33.0" width="250.4" height="299.0" rx="16" fill="#EEF3F9" stroke="#CED4DD" stroke-width="3"/><path d="M 399.2 166.8 L 436.6 149.2 L 443.2 164.6 L 405.8 182.2 Z" fill="#E6C78F" stroke="#1F3864" stroke-width="3" stroke-linecap="round" stroke-linejoin="round"/><path d="M 496.0 166.8 L 458.6 149.2 L 452.0 164.6 L 489.4 182.2 Z" fill="#C79A5C" stroke="#1F3864" stroke-width="3" stroke-linecap="round" stroke-linejoin="round"/><circle cx="447.6" cy="164.6" r="12.1" fill="#009688" stroke="#1F3864" stroke-width="3"/><text x="447.6" y="308.0" font-family="DejaVu Sans" font-size="28" font-weight="bold" fill="#1F3864" text-anchor="middle">lend</text><rect x="594.8" y="33.0" width="250.4" height="299.0" rx="16" fill="#EEF3F9" stroke="#CED4DD" stroke-width="3"/><path d="M 671.6 166.8 L 709.0 149.2 L 715.6 164.6 L 678.2 182.2 Z" fill="#E6C78F" stroke="#1F3864" stroke-width="3" stroke-linecap="round" stroke-linejoin="round"/><path d="M 768.4 166.8 L 731.0 149.2 L 724.4 164.6 L 761.8 182.2 Z" fill="#C79A5C" stroke="#1F3864" stroke-width="3" stroke-linecap="round" stroke-linejoin="round"/><circle cx="720.0" cy="164.6" r="12.1" fill="#009688" stroke="#1F3864" stroke-width="3"/><text x="720.0" y="308.0" font-family="DejaVu Sans" font-size="28" font-weight="bold" fill="#1F3864" text-anchor="middle">borrow</text><rect x="867.2" y="33.0" width="250.4" height="299.0" rx="16" fill="#EEF3F9" stroke="#CED4DD" stroke-width="3"/><rect x="948.4" y="127.2" width="88.0" height="55.0" rx="13.200000000000001" fill="#EEF3F9" stroke="#1F3864" stroke-width="3"/><path d="M 974.8 182.2 L 985.8 206.4 L 1001.2 182.2 Z" fill="#EEF3F9" stroke="#EEF3F9" stroke-width="3" stroke-linecap="round" stroke-linejoin="round"/><line x1="963.8" y1="144.8" x2="1021.0" y2="144.8" stroke="#6E88AC" stroke-width="3" stroke-linecap="round"/><line x1="963.8" y1="160.2" x2="1005.6" y2="160.2" stroke="#6E88AC" stroke-width="3" stroke-linecap="round"/><text x="992.4" y="308.0" font-family="DejaVu Sans" font-size="28" font-weight="bold" fill="#1F3864" text-anchor="middle">advice</text><rect x="1139.6" y="33.0" width="250.4" height="299.0" rx="16" fill="#EEF3F9" stroke="#CED4DD" stroke-width="3"/><rect x="1218.6" y="125.0" width="92.4" height="63.8" rx="4.4" fill="#EEF3F9" stroke="#1F3864" stroke-width="3"/><line x1="1231.8" y1="142.6" x2="1297.8" y2="142.6" stroke="#6E88AC" stroke-width="3" stroke-linecap="round"/><line x1="1231.8" y1="155.8" x2="1278.0" y2="155.8" stroke="#6E88AC" stroke-width="3" stroke-linecap="round"/><circle cx="1289.0" cy="175.6" r="13.2" fill="#E6C78F" stroke="#1F3864" stroke-width="3"/><path d="M 1282.4 186.6 L 1280.2 210.8 L 1289.0 202.0 L 1297.8 210.8 L 1295.6 186.6 Z" fill="#A97C43" stroke="#1F3864" stroke-width="3" stroke-linecap="round" stroke-linejoin="round"/><text x="1264.8" y="308.0" font-family="DejaVu Sans" font-size="28" font-weight="bold" fill="#1F3864" text-anchor="middle">course</text><rect x="50.0" y="354.0" width="250.4" height="299.0" rx="16" fill="#EEF3F9" stroke="#CED4DD" stroke-width="3"/><circle cx="153.2" cy="450.4" r="16.5" fill="#8FA8C8" stroke="#1F3864" stroke-width="3"/><rect x="133.4" y="470.2" width="39.6" height="46.2" rx="13.200000000000001" fill="#8FA8C8" stroke="#1F3864" stroke-width="3"/><rect x="179.6" y="448.2" width="48.4" height="39.6" rx="3.3000000000000003" fill="#6E88AC" stroke="#1F3864" stroke-width="3"/><line x1="188.4" y1="459.2" x2="219.2" y2="459.2" stroke="#FFFFFF" stroke-width="3" stroke-linecap="round"/><line x1="188.4" y1="470.2" x2="210.4" y2="470.2" stroke="#FFFFFF" stroke-width="3" stroke-linecap="round"/><text x="175.2" y="629.0" font-family="DejaVu Sans" font-size="28" font-weight="bold" fill="#1F3864" text-anchor="middle">lesson</text><rect x="322.4" y="354.0" width="250.4" height="299.0" rx="16" fill="#EEF3F9" stroke="#CED4DD" stroke-width="3"/><rect x="412.4" y="457.0" width="70.4" height="57.2" rx="4.4" fill="#E6C78F" stroke="#1F3864" stroke-width="3"/><line x1="447.6" y1="457.0" x2="447.6" y2="514.2" stroke="#1F3864" stroke-width="3" stroke-linecap="round"/><line x1="423.4" y1="472.4" x2="438.8" y2="472.4" stroke="#A97C43" stroke-width="3" stroke-linecap="round"/><line x1="456.4" y1="472.4" x2="471.8" y2="472.4" stroke="#A97C43" stroke-width="3" stroke-linecap="round"/><text x="447.6" y="629.0" font-family="DejaVu Sans" font-size="28" font-weight="bold" fill="#1F3864" text-anchor="middle">beginner</text><rect x="594.8" y="354.0" width="250.4" height="299.0" rx="16" fill="#EEF3F9" stroke="#CED4DD" stroke-width="3"/><circle cx="720.0" cy="485.6" r="39.6" fill="#EEF3F9" stroke="#1F3864" stroke-width="3"/><line x1="720.0" y1="485.6" x2="720.0" y2="461.4" stroke="#1F3864" stroke-width="5" stroke-linecap="round"/><line x1="720.0" y1="485.6" x2="737.6" y2="494.4" stroke="#1F3864" stroke-width="5" stroke-linecap="round"/><text x="720.0" y="629.0" font-family="DejaVu Sans" font-size="28" font-weight="bold" fill="#1F3864" text-anchor="middle">patient</text><rect x="867.2" y="354.0" width="250.4" height="299.0" rx="16" fill="#EEF3F9" stroke="#CED4DD" stroke-width="3"/><circle cx="999.0" cy="505.4" r="26.4" fill="#A97C43" stroke="#1F3864" stroke-width="3"/><circle cx="985.8" cy="479.0" r="19.8" fill="#A97C43" stroke="#1F3864" stroke-width="3"/><circle cx="994.6" cy="496.6" r="8.8" fill="#FFFFFF" stroke="#1F3864" stroke-width="3"/><path d="M 974.8 465.8 L 952.8 437.2" fill="none" stroke="#1F3864" stroke-width="7" stroke-linecap="round" stroke-linejoin="round"/><rect x="941.8" y="430.6" width="17.6" height="13.2" rx="2.2" fill="#EEF3F9" stroke="#1F3864" stroke-width="3"/><text x="992.4" y="629.0" font-family="DejaVu Sans" font-size="28" font-weight="bold" fill="#1F3864" text-anchor="middle">instrument</text><rect x="1139.6" y="354.0" width="250.4" height="299.0" rx="16" fill="#EEF3F9" stroke="#CED4DD" stroke-width="3"/><circle cx="1264.8" cy="485.6" r="39.6" fill="#FFFFFF" stroke="#009688" stroke-width="6"/><path d="M 1247.2 487.8 L 1260.4 503.2 L 1284.6 468.0" fill="none" stroke="#009688" stroke-width="8" stroke-linecap="round" stroke-linejoin="round"/><text x="1264.8" y="629.0" font-family="DejaVu Sans" font-size="28" font-weight="bold" fill="#1F3864" text-anchor="middle">able</text></svg>