<svg xmlns="http://www.w3.org/2000/svg" width="1440" height="531" viewBox="0 0 1440 531"><rect width="1440" height="531" fill="#FFFFFF"/><rect x="120.0" y="29.3" width="640.0" height="470.0" rx="22" fill="#EEF3F9" stroke="#CED4DD" stroke-width="3"/><line x1="160.0" y1="452.3" x2="720.0" y2="452.3" stroke="#AEB6C2" stroke-width="5" stroke-linecap="round"/><rect x="152.0" y="81.0" width="89.6" height="122.2" rx="5" fill="#EEF3F9" stroke="#1F3864" stroke-width="3"/><circle cx="196.8" cy="137.2" r="21.5" fill="#FFFFFF" stroke="#1F3864" stroke-width="4"/><line x1="181.7" y1="152.3" x2="211.9" y2="122.2" stroke="#1F3864" stroke-width="5" stroke-linecap="round"/><rect x="286.4" y="128.0" width="89.6" height="122.2" rx="5" fill="#EEF3F9" stroke="#1F3864" stroke-width="3"/><line x1="309.7" y1="184.2" x2="326.9" y2="199.3" stroke="#1F3864" stroke-width="6" stroke-linecap="round"/><line x1="326.9" y1="199.3" x2="352.7" y2="167.0" stroke="#1F3864" stroke-width="6" stroke-linecap="round"/><rect x="420.8" y="184.4" width="89.6" height="122.2" rx="5" fill="#EEF3F9" stroke="#1F3864" stroke-width="3"/><rect x="444.1" y="219.1" width="43.0" height="43.0" rx="3" fill="#FFFFFF" stroke="#1F3864" stroke-width="3"/><rect x="548.8" y="240.8" width="89.6" height="122.2" rx="5" fill="#EEF3F9" stroke="#1F3864" stroke-width="3"/><circle cx="582.8" cy="297.0" r="11.8" fill="#FFFFFF" stroke="#1F3864" stroke-width="4"/><line x1="591.4" y1="297.0" x2="615.1" y2="297.0" stroke="#1F3864" stroke-width="5" stroke-linecap="round"/><line x1="606.5" y1="297.0" x2="606.5" y2="307.8" stroke="#1F3864" stroke-width="5" stroke-linecap="round"/><rect x="651.2" y="306.6" width="89.6" height="122.2" rx="5" fill="#EEF3F9" stroke="#1F3864" stroke-width="3"/><circle cx="686.3" cy="367.1" r="15.1" fill="#E6C78F" stroke="#1F3864" stroke-width="4"/><circle cx="705.7" cy="358.5" r="15.1" fill="#C79A5C" stroke="#1F3864" stroke-width="4"/><line x1="196.8" y1="142.1" x2="846.0" y2="45.3" stroke="#1F3864" stroke-width="3" stroke-linecap="round"/><circle cx="196.8" cy="142.1" r="7.0" fill="#1F3864" stroke="#1F3864" stroke-width="0"/><text x="856.0" y="57.3" font-family="DejaVu Sans" font-size="32" font-weight="bold" fill="#1F3864" text-anchor="start">1.</text><line x1="916.0" y1="61.3" x2="1350.0" y2="61.3" stroke="#AEB6C2" stroke-width="3" stroke-linecap="round"/><line x1="331.2" y1="189.1" x2="846.0" y2="155.3" stroke="#1F3864" stroke-width="3" stroke-linecap="round"/><circle cx="331.2" cy="189.1" r="7.0" fill="#1F3864" stroke="#1F3864" stroke-width="0"/><text x="856.0" y="167.3" font-family="DejaVu Sans" font-size="32" font-weight="bold" fill="#1F3864" text-anchor="start">2.</text><line x1="916.0" y1="171.3" x2="1350.0" y2="171.3" stroke="#AEB6C2" stroke-width="3" stroke-linecap="round"/><line x1="465.6" y1="245.5" x2="846.0" y2="265.3" stroke="#1F3864" stroke-width="3" stroke-linecap="round"/><circle cx="465.6" cy="245.5" r="7.0" fill="#1F3864" stroke="#1F3864" stroke-width="0"/><text x="856.0" y="277.3" font-family="DejaVu Sans" font-size="32" font-weight="bold" fill="#1F3864" text-anchor="start">3.</text><line x1="916.0" y1="281.3" x2="1350.0" y2="281.3" stroke="#AEB6C2" stroke-width="3" stroke-linecap="round"/><line x1="593.6" y1="301.9" x2="846.0" y2="375.3" stroke="#1F3864" stroke-width="3" stroke-linecap="round"/><circle cx="593.6" cy="301.9" r="7.0" fill="#1F3864" stroke="#1F3864" stroke-width="0"/><text x="856.0" y="387.3" font-family="DejaVu Sans" font-size="32" font-weight="bold" fill="#1F3864" text-anchor="start">4.</text><line x1="916.0" y1="391.3" x2="1350.0" y2="391.3" stroke="#AEB6C2" stroke-width="3" stroke-linecap="round"/><line x1="696.0" y1="367.7" x2="846.0" y2="485.3" stroke="#1F3864" stroke-width="3" stroke-linecap="round"/><circle cx="696.0" cy="367.7" r="7.0" fill="#1F3864" stroke="#1F3864" stroke-width="0"/><text x="856.0" y="497.3" font-family="DejaVu Sans" font-size="32" font-weight="bold" fill="#1F3864" text-anchor="start">5.</text><line x1="916.0" y1="501.3" x2="1350.0" y2="501.3" stroke="#AEB6C2" stroke-width="3" stroke-linecap="round"/></svg>