<svg xmlns="http://www.w3.org/2000/svg" width="1440" height="397" viewBox="0 0 1440 397"><rect width="1440" height="397" fill="#FFFFFF"/><rect x="54.0" y="22.7" width="313.5" height="352.0" rx="16" fill="#EEF3F9" stroke="#CED4DD" stroke-width="3"/><circle cx="88.0" cy="56.7" r="22.0" fill="#1F3864" stroke="#1F3864" stroke-width="0"/><text x="88.0" y="65.5" font-family="DejaVu Sans" font-size="27" font-weight="bold" fill="#FFFFFF" text-anchor="middle">1</text><rect x="162.8" y="231.8" width="96.0" height="28.8" rx="3.5999999999999996" fill="#E6C78F" stroke="#1F3864" stroke-width="3"/><path d="M 186.8 231.8 L 203.6 246.2 L 220.3 234.2 L 234.8 251.0" fill="none" stroke="#1F3864" stroke-width="4" stroke-linecap="round" stroke-linejoin="round"/><line x1="210.8" y1="193.4" x2="210.8" y2="176.6" stroke="#A97C43" stroke-width="4" stroke-linecap="round"/><line x1="189.2" y1="205.4" x2="189.2" y2="188.6" stroke="#A97C43" stroke-width="4" stroke-linecap="round"/><line x1="232.3" y1="205.4" x2="232.3" y2="188.6" stroke="#A97C43" stroke-width="4" stroke-linecap="round"/><text x="210.8" y="352.7" font-family="DejaVu Sans" font-size="30" font-weight="bold" fill="#1F3864" text-anchor="middle">earthquake</text><rect x="393.5" y="22.7" width="313.5" height="352.0" rx="16" fill="#EEF3F9" stroke="#CED4DD" stroke-width="3"/><circle cx="427.5" cy="56.7" r="22.0" fill="#1F3864" stroke="#1F3864" stroke-width="0"/><text x="427.5" y="65.5" font-family="DejaVu Sans" font-size="27" font-weight="bold" fill="#FFFFFF" text-anchor="middle">2</text><path d="M 543.0 203.0 L 581.5 179.0 L 581.5 236.6 L 543.0 217.4 Z" fill="#6E88AC" stroke="#1F3864" stroke-width="3" stroke-linecap="round" stroke-linejoin="round"/><rect x="523.9" y="203.0" width="19.2" height="31.2" rx="3.5999999999999996" fill="#8FA8C8" stroke="#1F3864" stroke-width="3"/><line x1="557.5" y1="236.6" x2="557.5" y2="267.8" stroke="#A97C43" stroke-width="5" stroke-linecap="round"/><path d="M 591.0 188.6 Q 603.0 207.8 591.0 227.0" fill="none" stroke="#1F3864" stroke-width="3" stroke-linecap="round" stroke-linejoin="round"/><path d="M 605.5 188.6 Q 617.5 207.8 605.5 227.0" fill="none" stroke="#1F3864" stroke-width="3" stroke-linecap="round" stroke-linejoin="round"/><text x="550.2" y="352.7" font-family="DejaVu Sans" font-size="30" font-weight="bold" fill="#1F3864" text-anchor="middle">loudspeaker</text><rect x="733.0" y="22.7" width="313.5" height="352.0" rx="16" fill="#EEF3F9" stroke="#CED4DD" stroke-width="3"/><circle cx="767.0" cy="56.7" r="22.0" fill="#1F3864" stroke="#1F3864" stroke-width="0"/><text x="767.0" y="65.5" font-family="DejaVu Sans" font-size="27" font-weight="bold" fill="#FFFFFF" text-anchor="middle">3</text><circle cx="870.5" cy="248.6" r="15.6" fill="#1F3864" stroke="#1F3864" stroke-width="3"/><circle cx="916.1" cy="239.0" r="15.6" fill="#1F3864" stroke="#1F3864" stroke-width="3"/><line x1="885.0" y1="248.6" x2="885.0" y2="179.0" stroke="#1F3864" stroke-width="5" stroke-linecap="round"/><line x1="930.5" y1="239.0" x2="930.5" y2="169.4" stroke="#1F3864" stroke-width="5" stroke-linecap="round"/><path d="M 885.0 179.0 L 930.5 169.4 L 930.5 186.2 L 885.0 195.8 Z" fill="#009688" stroke="#1F3864" stroke-width="3" stroke-linecap="round" stroke-linejoin="round"/><text x="889.8" y="352.7" font-family="DejaVu Sans" font-size="30" font-weight="bold" fill="#1F3864" text-anchor="middle">rehearse</text><rect x="1072.5" y="22.7" width="313.5" height="352.0" rx="16" fill="#EEF3F9" stroke="#CED4DD" stroke-width="3"/><circle cx="1106.5" cy="56.7" r="22.0" fill="#1F3864" stroke="#1F3864" stroke-width="0"/><text x="1106.5" y="65.5" font-family="DejaVu Sans" font-size="27" font-weight="bold" fill="#FFFFFF" text-anchor="middle">4</text><rect x="1176.5" y="179.0" width="105.6" height="67.2" rx="6.0" fill="#EEF3F9" stroke="#1F3864" stroke-width="3"/><rect x="1186.0" y="187.4" width="86.4" height="50.4" rx="2.4" fill="#8FA8C8" stroke="#1F3864" stroke-width="0"/><line x1="1229.2" y1="246.2" x2="1229.2" y2="260.6" stroke="#1F3864" stroke-width="5" stroke-linecap="round"/><line x1="1202.8" y1="265.4" x2="1255.7" y2="265.4" stroke="#1F3864" stroke-width="5" stroke-linecap="round"/><text x="1229.2" y="352.7" font-family="DejaVu Sans" font-size="30" font-weight="bold" fill="#1F3864" text-anchor="middle">sensor</text></svg>