<svg xmlns="http://www.w3.org/2000/svg" width="1440" height="412" viewBox="0 0 1440 412"><rect width="1440" height="412" fill="#FFFFFF"/><rect x="46.0" y="23.4" width="1348.0" height="270.0" rx="18" fill="#EEF3F9" stroke="#CED4DD" stroke-width="3"/><line x1="58.0" y1="293.4" x2="1382.0" y2="293.4" stroke="#1F3864" stroke-width="6" stroke-linecap="round"/><rect x="171.8" y="81.0" width="103.5" height="158.7" rx="6.9" fill="#6E88AC" stroke="#1F3864" stroke-width="3"/><rect x="182.1" y="91.4" width="82.8" height="51.8" rx="3.45" fill="#EEF3F9" stroke="#1F3864" stroke-width="3"/><circle cx="254.6" cy="167.3" r="8.6" fill="#E6C78F" stroke="#1F3864" stroke-width="2"/><line x1="223.5" y1="293.4" x2="223.5" y2="315.4" stroke="#AEB6C2" stroke-width="3" stroke-linecap="round"/><text x="223.5" y="353.4" font-family="DejaVu Sans" font-size="28" font-weight="bold" fill="#1F3864" text-anchor="middle">flat 1</text><rect x="475.1" y="205.2" width="41.4" height="31.1" rx="3.45" fill="#EEF3F9" stroke="#1F3864" stroke-width="3"/><rect x="516.5" y="174.2" width="41.4" height="31.1" rx="3.45" fill="#EEF3F9" stroke="#1F3864" stroke-width="3"/><rect x="558.0" y="143.2" width="41.4" height="31.1" rx="3.45" fill="#EEF3F9" stroke="#1F3864" stroke-width="3"/><rect x="599.4" y="112.1" width="41.4" height="31.1" rx="3.45" fill="#EEF3F9" stroke="#1F3864" stroke-width="3"/><line x1="475.1" y1="236.3" x2="633.9" y2="236.3" stroke="#1F3864" stroke-width="4" stroke-linecap="round"/><line x1="554.5" y1="293.4" x2="554.5" y2="315.4" stroke="#AEB6C2" stroke-width="3" stroke-linecap="round"/><text x="554.5" y="353.4" font-family="DejaVu Sans" font-size="28" font-weight="bold" fill="#1F3864" text-anchor="middle">the staircase</text><path d="M 809.6 198.3 L 809.6 153.5 Q 809.6 108.6 864.8 108.6 L 913.1 108.6 Q 964.9 108.6 964.9 157.0 L 964.9 198.3 Z" fill="#E6C78F" stroke="#1F3864" stroke-width="3" stroke-linecap="round" stroke-linejoin="round"/><line x1="833.8" y1="146.6" x2="864.8" y2="146.6" stroke="#A97C43" stroke-width="3" stroke-linecap="round"/><line x1="882.0" y1="146.6" x2="913.1" y2="146.6" stroke="#A97C43" stroke-width="3" stroke-linecap="round"/><line x1="885.5" y1="293.4" x2="885.5" y2="315.4" stroke="#AEB6C2" stroke-width="3" stroke-linecap="round"/><text x="885.5" y="353.4" font-family="DejaVu Sans" font-size="28" font-weight="bold" fill="#1F3864" text-anchor="middle">the bread for the</text><text x="885.5" y="387.4" font-family="DejaVu Sans" font-size="28" font-weight="bold" fill="#1F3864" text-anchor="middle">birds</text><rect x="1144.0" y="115.6" width="144.9" height="89.7" rx="5.175000000000001" fill="#FFFFFF" stroke="#1F3864" stroke-width="3"/><path d="M 1144.0 115.6 L 1216.5 167.3 L 1289.0 115.6" fill="none" stroke="#1F3864" stroke-width="4" stroke-linecap="round" stroke-linejoin="round"/><rect x="1251.0" y="122.5" width="31.1" height="24.2" rx="3.45" fill="#A97C43" stroke="#1F3864" stroke-width="3"/><line x1="1216.5" y1="293.4" x2="1216.5" y2="315.4" stroke="#AEB6C2" stroke-width="3" stroke-linecap="round"/><text x="1216.5" y="353.4" font-family="DejaVu Sans" font-size="28" font-weight="bold" fill="#1F3864" text-anchor="middle">a note never</text><text x="1216.5" y="387.4" font-family="DejaVu Sans" font-size="28" font-weight="bold" fill="#1F3864" text-anchor="middle">posted</text></svg>