<svg xmlns="http://www.w3.org/2000/svg" width="1440" height="336" viewBox="0 0 1440 336"><rect width="1440" height="336" fill="#FFFFFF"/><circle cx="104.0" cy="46.3" r="26.6" fill="#EEF3F9" stroke="#1F3864" stroke-width="3"/><line x1="104.0" y1="46.3" x2="104.0" y2="30.0" stroke="#1F3864" stroke-width="5" stroke-linecap="round"/><line x1="104.0" y1="46.3" x2="115.8" y2="52.2" stroke="#1F3864" stroke-width="5" stroke-linecap="round"/><line x1="160.0" y1="46.3" x2="1384.0" y2="46.3" stroke="#1F3864" stroke-width="5" stroke-linecap="round"/><rect x="56.0" y="108.3" width="430.7" height="208.0" rx="14" fill="#EEF3F9" stroke="#CED4DD" stroke-width="3"/><rect x="56.0" y="108.3" width="430.7" height="60.0" rx="14" fill="#1F3864" stroke="#1F3864" stroke-width="0"/><text x="271.3" y="150.3" font-family="DejaVu Sans" font-size="30" font-weight="bold" fill="#FFFFFF" text-anchor="middle">1</text><circle cx="271.3" cy="185.9" r="15.3" fill="#8FA8C8" stroke="#1F3864" stroke-width="3"/><rect x="253.3" y="203.9" width="36.0" height="41.4" rx="12.6" fill="#8FA8C8" stroke="#1F3864" stroke-width="3"/><text x="271.3" y="292.3" font-family="DejaVu Sans" font-size="28" font-weight="bold" fill="#1F3864" text-anchor="middle">the first person</text><rect x="498.7" y="108.3" width="430.7" height="208.0" rx="14" fill="#EEF3F9" stroke="#CED4DD" stroke-width="3"/><rect x="498.7" y="108.3" width="430.7" height="60.0" rx="14" fill="#1F3864" stroke="#1F3864" stroke-width="0"/><text x="714.0" y="150.3" font-family="DejaVu Sans" font-size="30" font-weight="bold" fill="#FFFFFF" text-anchor="middle">2</text><circle cx="699.6" cy="189.5" r="13.5" fill="#8FA8C8" stroke="#1F3864" stroke-width="3"/><rect x="683.4" y="205.7" width="32.4" height="37.8" rx="10.8" fill="#8FA8C8" stroke="#1F3864" stroke-width="3"/><rect x="721.2" y="218.3" width="28.8" height="25.2" rx="3.6" fill="#E6C78F" stroke="#1F3864" stroke-width="3"/><line x1="735.6" y1="218.3" x2="735.6" y2="209.3" stroke="#1F3864" stroke-width="4" stroke-linecap="round"/><text x="714.0" y="292.3" font-family="DejaVu Sans" font-size="28" font-weight="bold" fill="#1F3864" text-anchor="middle">the second</text><rect x="941.3" y="108.3" width="430.7" height="208.0" rx="14" fill="#EEF3F9" stroke="#CED4DD" stroke-width="3"/><rect x="941.3" y="108.3" width="430.7" height="60.0" rx="14" fill="#1F3864" stroke="#1F3864" stroke-width="0"/><text x="1156.7" y="150.3" font-family="DejaVu Sans" font-size="30" font-weight="bold" fill="#FFFFFF" text-anchor="middle">3</text><circle cx="1129.7" cy="193.1" r="8.2" fill="#8FA8C8" stroke="#1F3864" stroke-width="3"/><rect x="1118.0" y="209.3" width="23.4" height="30.6" rx="7.2" fill="#8FA8C8" stroke="#1F3864" stroke-width="3"/><circle cx="1156.7" cy="185.9" r="9.5" fill="#8FA8C8" stroke="#1F3864" stroke-width="3"/><rect x="1143.2" y="202.1" width="27.0" height="30.6" rx="7.2" fill="#8FA8C8" stroke="#1F3864" stroke-width="3"/><circle cx="1183.7" cy="193.1" r="8.2" fill="#8FA8C8" stroke="#1F3864" stroke-width="3"/><rect x="1172.0" y="209.3" width="23.4" height="30.6" rx="7.2" fill="#8FA8C8" stroke="#1F3864" stroke-width="3"/><text x="1156.7" y="292.3" font-family="DejaVu Sans" font-size="28" font-weight="bold" fill="#1F3864" text-anchor="middle">the last one</text></svg>