<svg xmlns="http://www.w3.org/2000/svg" width="1600" height="720" viewBox="0 0 1600 720">
<title>The same corner, 1998 and now</title>
<desc>Two panels of the same street corner, one with a market table and a tree and the other with a new tower, a sign and fewer people.</desc>
<g id="00_ground">
<rect x="0" y="0" width="1600" height="720" rx="0" fill="#FBF7F0"/>
</g>
<g id="10_context">
<rect x="60.0" y="130" width="720.0" height="480" rx="6" fill="#FFFFFF" stroke="#D8CFC2" stroke-width="2"/>
<rect x="60.0" y="130" width="720.0" height="42" rx="6" fill="#1F4E5F"/>
<rect x="60.0" y="160" width="720.0" height="12" rx="0" fill="#1F4E5F"/>
<text x="420.0" y="159" font-family="Inter, DejaVu Sans, sans-serif" font-size="15" fill="#FFFFFF" text-anchor="middle" font-weight="700" font-style="normal">1998</text>
<rect x="820.0" y="130" width="720.0" height="480" rx="6" fill="#FFFFFF" stroke="#D8CFC2" stroke-width="2"/>
<rect x="820.0" y="130" width="720.0" height="42" rx="6" fill="#C86B2B"/>
<rect x="820.0" y="160" width="720.0" height="12" rx="0" fill="#C86B2B"/>
<text x="1180.0" y="159" font-family="Inter, DejaVu Sans, sans-serif" font-size="15" fill="#FFFFFF" text-anchor="middle" font-weight="700" font-style="normal">now</text>
</g>
<g id="20_subject">
<line x1="80.0" y1="562" x2="760.0" y2="562" stroke="#1C2B33" stroke-width="1.6" stroke-linecap="round" opacity="0.35"/>
<rect x="105.0" y="482" width="150" height="80" rx="0" fill="#E2D8C4" stroke="#1C2B33" stroke-width="1.6"/>
<ellipse cx="360.0" cy="563.9764705882353" rx="14.494117647058824" ry="3.2941176470588234" fill="#1C2B33" opacity="0.10"/>
<path d="M 354.0705882352941 562 L 355.38823529411764 510.48" fill="none" stroke="#3A4A55" stroke-width="6.588235294117647" stroke-linecap="round" stroke-linejoin="round"/>
<path d="M 365.9294117647059 562 L 364.61176470588236 510.48" fill="none" stroke="#3A4A55" stroke-width="6.588235294117647" stroke-linecap="round" stroke-linejoin="round"/>
<path d="M 360.0 476.35294117647055 L 360.0 513.1152941176471" fill="none" stroke="#2E6F5E" stroke-width="15.811764705882354" stroke-linecap="round" stroke-linejoin="round"/>
<path d="M 347.4823529411765 477.01176470588234 L 372.5176470588235 477.01176470588234" fill="none" stroke="#2E6F5E" stroke-width="8.564705882352941" stroke-linecap="round" stroke-linejoin="round"/>
<path d="M 347.4823529411765 478.32941176470587 L 345.50588235294117 517.0682352941177" fill="none" stroke="#2E6F5E" stroke-width="5.929411764705883" stroke-linecap="round" stroke-linejoin="round"/>
<circle cx="345.50588235294117" cy="519.044705882353" r="3.2941176470588234" fill="#F0D3B4"/>
<path d="M 372.5176470588235 478.32941176470587 L 374.49411764705883 517.0682352941177" fill="none" stroke="#2E6F5E" stroke-width="5.929411764705883" stroke-linecap="round" stroke-linejoin="round"/>
<circle cx="374.49411764705883" cy="519.044705882353" r="3.2941176470588234" fill="#F0D3B4"/>
<path d="M 360.0 473.05882352941177 L 360.0 469.7647058823529" fill="none" stroke="#F0D3B4" stroke-width="6.588235294117647" stroke-linecap="round" stroke-linejoin="round"/>
<circle cx="360.0" cy="461.2" r="9.882352941176471" fill="#F0D3B4"/>
<path d="M 350.11764705882354 459.88235294117646 A 9.882352941176471 9.882352941176471 0 0 1 369.88235294117646 459.88235294117646" fill="none" stroke="#2A2320" stroke-width="4.6117647058823525" stroke-linecap="round" stroke-linejoin="round"/>
<circle cx="356.70588235294116" cy="461.8588235294118" r="1.1858823529411764" fill="#2A2320"/>
<circle cx="363.29411764705884" cy="461.8588235294118" r="1.1858823529411764" fill="#2A2320"/>
<path d="M 357.36470588235295 466.4705882352941 Q 360.0 467.7882352941176 362.63529411764705 466.4705882352941" fill="none" stroke="#8A5A48" stroke-width="1.0541176470588236" stroke-linecap="round" stroke-linejoin="round"/>
<ellipse cx="420.0" cy="563.9058823529411" rx="13.976470588235294" ry="3.176470588235294" fill="#1C2B33" opacity="0.10"/>
<path d="M 414.2823529411765 562 L 415.5529411764706 512.32" fill="none" stroke="#3A4A55" stroke-width="6.352941176470588" stroke-linecap="round" stroke-linejoin="round"/>
<path d="M 425.7176470588235 562 L 424.4470588235294 512.32" fill="none" stroke="#3A4A55" stroke-width="6.352941176470588" stroke-linecap="round" stroke-linejoin="round"/>
<path d="M 420.0 479.41176470588226 L 420.0 514.8611764705882" fill="none" stroke="#1F4E5F" stroke-width="15.24705882352941" stroke-linecap="round" stroke-linejoin="round"/>
<path d="M 407.9294117647059 480.0470588235293 L 432.0705882352941 480.0470588235293" fill="none" stroke="#1F4E5F" stroke-width="8.258823529411764" stroke-linecap="round" stroke-linejoin="round"/>
<path d="M 407.9294117647059 481.3176470588234 L 406.02352941176474 518.6729411764707" fill="none" stroke="#1F4E5F" stroke-width="5.717647058823529" stroke-linecap="round" stroke-linejoin="round"/>
<circle cx="406.02352941176474" cy="520.5788235294118" r="3.176470588235294" fill="#E8C39E"/>
<path d="M 432.0705882352941 481.3176470588234 L 433.97647058823526 518.6729411764707" fill="none" stroke="#1F4E5F" stroke-width="5.717647058823529" stroke-linecap="round" stroke-linejoin="round"/>
<circle cx="433.97647058823526" cy="520.5788235294118" r="3.176470588235294" fill="#E8C39E"/>
<path d="M 420.0 476.23529411764696 L 420.0 473.0588235294117" fill="none" stroke="#E8C39E" stroke-width="6.352941176470588" stroke-linecap="round" stroke-linejoin="round"/>
<circle cx="420.0" cy="464.79999999999995" r="9.529411764705882" fill="#E8C39E"/>
<path d="M 410.47058823529414 463.52941176470586 A 9.529411764705882 9.529411764705882 0 0 1 429.52941176470586 463.52941176470586" fill="none" stroke="#2A2320" stroke-width="4.447058823529412" stroke-linecap="round" stroke-linejoin="round"/>
<circle cx="416.8235294117647" cy="465.435294117647" r="1.143529411764706" fill="#2A2320"/>
<circle cx="423.1764705882353" cy="465.435294117647" r="1.143529411764706" fill="#2A2320"/>
<path d="M 417.45882352941175 469.8823529411764 Q 420.0 471.15294117647056 422.54117647058825 469.8823529411764" fill="none" stroke="#8A5A48" stroke-width="1.016470588235294" stroke-linecap="round" stroke-linejoin="round"/>
<text x="360.0" y="362" font-family="Inter, DejaVu Sans, sans-serif" font-size="15" fill="#C86B2B" text-anchor="middle" font-weight="600" font-style="normal">a table, a tree, four people</text>
<line x1="840.0" y1="562" x2="1520.0" y2="562" stroke="#1C2B33" stroke-width="1.6" stroke-linecap="round" opacity="0.35"/>
<rect x="865.0" y="422" width="150" height="140" rx="0" fill="#C4BFB4" stroke="#1C2B33" stroke-width="1.6"/>
<ellipse cx="1140.0" cy="563.9764705882353" rx="14.494117647058824" ry="3.2941176470588234" fill="#1C2B33" opacity="0.10"/>
<path d="M 1134.070588235294 562 L 1135.3882352941177 510.48" fill="none" stroke="#3A4A55" stroke-width="6.588235294117647" stroke-linecap="round" stroke-linejoin="round"/>
<path d="M 1145.929411764706 562 L 1144.6117647058823 510.48" fill="none" stroke="#3A4A55" stroke-width="6.588235294117647" stroke-linecap="round" stroke-linejoin="round"/>
<path d="M 1140.0 476.35294117647055 L 1140.0 513.1152941176471" fill="none" stroke="#8C6A9E" stroke-width="15.811764705882354" stroke-linecap="round" stroke-linejoin="round"/>
<path d="M 1127.4823529411765 477.01176470588234 L 1152.5176470588235 477.01176470588234" fill="none" stroke="#8C6A9E" stroke-width="8.564705882352941" stroke-linecap="round" stroke-linejoin="round"/>
<path d="M 1127.4823529411765 478.32941176470587 L 1125.5058823529412 517.0682352941177" fill="none" stroke="#8C6A9E" stroke-width="5.929411764705883" stroke-linecap="round" stroke-linejoin="round"/>
<circle cx="1125.5058823529412" cy="519.044705882353" r="3.2941176470588234" fill="#C98E63"/>
<path d="M 1152.5176470588235 478.32941176470587 L 1154.4941176470588 517.0682352941177" fill="none" stroke="#8C6A9E" stroke-width="5.929411764705883" stroke-linecap="round" stroke-linejoin="round"/>
<circle cx="1154.4941176470588" cy="519.044705882353" r="3.2941176470588234" fill="#C98E63"/>
<path d="M 1140.0 473.05882352941177 L 1140.0 469.7647058823529" fill="none" stroke="#C98E63" stroke-width="6.588235294117647" stroke-linecap="round" stroke-linejoin="round"/>
<circle cx="1140.0" cy="461.2" r="9.882352941176471" fill="#C98E63"/>
<path d="M 1130.1176470588234 459.88235294117646 A 9.882352941176471 9.882352941176471 0 0 1 1149.8823529411766 459.88235294117646" fill="none" stroke="#2A2320" stroke-width="4.6117647058823525" stroke-linecap="round" stroke-linejoin="round"/>
<circle cx="1136.7058823529412" cy="461.8588235294118" r="1.1858823529411764" fill="#2A2320"/>
<circle cx="1143.2941176470588" cy="461.8588235294118" r="1.1858823529411764" fill="#2A2320"/>
<path d="M 1137.3647058823528 466.4705882352941 Q 1140.0 467.7882352941176 1142.6352941176472 466.4705882352941" fill="none" stroke="#8A5A48" stroke-width="1.0541176470588236" stroke-linecap="round" stroke-linejoin="round"/>
<rect x="1196.0" y="464" width="68" height="88" rx="0" fill="#FFFFFF" stroke="#1C2B33" stroke-width="1.8"/>
<line x1="1206.0" y1="478" x2="1254.0" y2="478" stroke="#55646D" stroke-width="1.4" stroke-linecap="round" opacity="0.6"/>
<line x1="1206.0" y1="492" x2="1254.0" y2="492" stroke="#55646D" stroke-width="1.4" stroke-linecap="round" opacity="0.6"/>
<line x1="1206.0" y1="506" x2="1254.0" y2="506" stroke="#55646D" stroke-width="1.4" stroke-linecap="round" opacity="0.6"/>
<line x1="1206.0" y1="520" x2="1254.0" y2="520" stroke="#55646D" stroke-width="1.4" stroke-linecap="round" opacity="0.6"/>
<line x1="1206.0" y1="534" x2="1254.0" y2="534" stroke="#55646D" stroke-width="1.4" stroke-linecap="round" opacity="0.6"/>
<text x="1120.0" y="362" font-family="Inter, DejaVu Sans, sans-serif" font-size="15" fill="#1F4E5F" text-anchor="middle" font-weight="600" font-style="normal">a tower, a sign, one person</text>
</g>
<g id="40_callouts">
<text x="800.0" y="46" font-family="Inter, DejaVu Sans, sans-serif" font-size="30" fill="#1F4E5F" text-anchor="middle" font-weight="700" font-style="normal">The same corner, 1998 and now</text>
<text x="800.0" y="72" font-family="Inter, DejaVu Sans, sans-serif" font-size="15" fill="#55646D" text-anchor="middle" font-weight="400" font-style="normal">Learner A has 1998. Learner B has now. Six things changed and two did not.</text>
<text x="800.0" y="654" font-family="Inter, DejaVu Sans, sans-serif" font-size="17" fill="#55646D" text-anchor="middle" font-weight="400" font-style="italic">Two things are in both. Name them last.</text>
<text x="800.0" y="686" font-family="Inter, DejaVu Sans, sans-serif" font-size="15" fill="#C86B2B" text-anchor="middle" font-weight="700" font-style="normal">8 differences — find them all</text>
</g>
</svg>
