<svg xmlns="http://www.w3.org/2000/svg" width="1600" height="840" viewBox="0 0 1600 840">
<title>The staff corridor, Wednesday</title>
<desc>A hospital staff corridor with a vacancy notice, a rota, a shortlist pinned to a board, a coffee machine, a 1998 intake photograph and a leaving card going round.</desc>
<g id="00_ground">
<rect x="0" y="0" width="1600" height="840" rx="0" fill="#FBF7F0"/>
</g>
<g id="10_context">
<rect x="0" y="0" width="1600" height="680" rx="0" fill="#DFE4E6"/>
<rect x="-40" y="597" width="79" height="83" rx="0" fill="#1C2B33" stroke="none" stroke-width="1.5" opacity="0.085"/>
<rect x="74" y="554" width="98" height="126" rx="0" fill="#1C2B33" stroke="none" stroke-width="1.5" opacity="0.085"/>
<rect x="188" y="511" width="117" height="169" rx="0" fill="#1C2B33" stroke="none" stroke-width="1.5" opacity="0.085"/>
<rect x="217.25" y="495" width="35.1" height="16" rx="0" fill="#1C2B33" stroke="none" stroke-width="1.5" opacity="0.085"/>
<rect x="342" y="468" width="136" height="212" rx="0" fill="#1C2B33" stroke="none" stroke-width="1.5" opacity="0.085"/>
<rect x="496" y="425" width="155" height="255" rx="0" fill="#1C2B33" stroke="none" stroke-width="1.5" opacity="0.085"/>
<rect x="690" y="382" width="174" height="298" rx="0" fill="#1C2B33" stroke="none" stroke-width="1.5" opacity="0.085"/>
<rect x="733.5" y="366" width="52.199999999999996" height="16" rx="0" fill="#1C2B33" stroke="none" stroke-width="1.5" opacity="0.085"/>
<rect x="884" y="633" width="193" height="47" rx="0" fill="#1C2B33" stroke="none" stroke-width="1.5" opacity="0.085"/>
<rect x="1118" y="590" width="62" height="90" rx="0" fill="#1C2B33" stroke="none" stroke-width="1.5" opacity="0.085"/>
<rect x="1202" y="547" width="81" height="133" rx="0" fill="#1C2B33" stroke="none" stroke-width="1.5" opacity="0.085"/>
<rect x="1222.25" y="531" width="24.3" height="16" rx="0" fill="#1C2B33" stroke="none" stroke-width="1.5" opacity="0.085"/>
<rect x="1326" y="504" width="100" height="176" rx="0" fill="#1C2B33" stroke="none" stroke-width="1.5" opacity="0.085"/>
<rect x="1450" y="461" width="119" height="219" rx="0" fill="#1C2B33" stroke="none" stroke-width="1.5" opacity="0.085"/>
<rect x="1614" y="418" width="138" height="262" rx="0" fill="#1C2B33" stroke="none" stroke-width="1.5" opacity="0.085"/>
<rect x="1648.5" y="402" width="41.4" height="16" rx="0" fill="#1C2B33" stroke="none" stroke-width="1.5" opacity="0.085"/>
<rect x="0" y="646" width="1600" height="34" rx="0" fill="#DFE4E6" opacity="0.45"/>
<rect x="0" y="680" width="1600" height="160" rx="0" fill="#A1A6A6"/>
<rect x="0" y="680" width="1600" height="26" rx="0" fill="#1C2B33" opacity="0.07"/>
<line x1="0" y1="680" x2="1600" y2="680" stroke="#1C2B33" stroke-width="2.2" stroke-linecap="round" opacity="0.35"/>
<rect x="20" y="215" width="520" height="465" rx="0" fill="#D3CFC5" stroke="#1C2B33" stroke-width="2"/>
<rect x="20" y="205" width="528" height="12" rx="0" fill="#D3CFC5" stroke="#1C2B33" stroke-width="2"/>
<rect x="119.0" y="241" width="32" height="46" rx="0" fill="#9FB4BD" stroke="#1C2B33" stroke-width="1" opacity="0.9"/>
<rect x="167.0" y="241" width="32" height="46" rx="0" fill="#9FB4BD" stroke="#1C2B33" stroke-width="1" opacity="0.9"/>
<rect x="215.0" y="241" width="32" height="46" rx="0" fill="#9FB4BD" stroke="#1C2B33" stroke-width="1" opacity="0.9"/>
<rect x="263.0" y="241" width="32" height="46" rx="0" fill="#9FB4BD" stroke="#1C2B33" stroke-width="1" opacity="0.9"/>
<rect x="311.0" y="241" width="32" height="46" rx="0" fill="#9FB4BD" stroke="#1C2B33" stroke-width="1" opacity="0.9"/>
<rect x="359.0" y="241" width="32" height="46" rx="0" fill="#9FB4BD" stroke="#1C2B33" stroke-width="1" opacity="0.9"/>
<rect x="407.0" y="241" width="32" height="46" rx="0" fill="#9FB4BD" stroke="#1C2B33" stroke-width="1" opacity="0.9"/>
<rect x="119.0" y="396" width="32" height="46" rx="0" fill="#9FB4BD" stroke="#1C2B33" stroke-width="1" opacity="0.9"/>
<rect x="167.0" y="396" width="32" height="46" rx="0" fill="#9FB4BD" stroke="#1C2B33" stroke-width="1" opacity="0.9"/>
<rect x="215.0" y="396" width="32" height="46" rx="0" fill="#9FB4BD" stroke="#1C2B33" stroke-width="1" opacity="0.9"/>
<rect x="263.0" y="396" width="32" height="46" rx="0" fill="#9FB4BD" stroke="#1C2B33" stroke-width="1" opacity="0.9"/>
<rect x="311.0" y="396" width="32" height="46" rx="0" fill="#9FB4BD" stroke="#1C2B33" stroke-width="1" opacity="0.9"/>
<rect x="359.0" y="396" width="32" height="46" rx="0" fill="#9FB4BD" stroke="#1C2B33" stroke-width="1" opacity="0.9"/>
<rect x="407.0" y="396" width="32" height="46" rx="0" fill="#9FB4BD" stroke="#1C2B33" stroke-width="1" opacity="0.9"/>
<rect x="119.0" y="551" width="32" height="46" rx="0" fill="#9FB4BD" stroke="#1C2B33" stroke-width="1" opacity="0.9"/>
<rect x="167.0" y="551" width="32" height="46" rx="0" fill="#9FB4BD" stroke="#1C2B33" stroke-width="1" opacity="0.9"/>
<rect x="215.0" y="551" width="32" height="46" rx="0" fill="#9FB4BD" stroke="#1C2B33" stroke-width="1" opacity="0.9"/>
<rect x="263.0" y="551" width="32" height="46" rx="0" fill="#9FB4BD" stroke="#1C2B33" stroke-width="1" opacity="0.9"/>
<rect x="311.0" y="551" width="32" height="46" rx="0" fill="#9FB4BD" stroke="#1C2B33" stroke-width="1" opacity="0.9"/>
<rect x="359.0" y="551" width="32" height="46" rx="0" fill="#9FB4BD" stroke="#1C2B33" stroke-width="1" opacity="0.9"/>
<rect x="407.0" y="551" width="32" height="46" rx="0" fill="#9FB4BD" stroke="#1C2B33" stroke-width="1" opacity="0.9"/>
<rect x="600" y="370" width="340" height="310" rx="0" fill="#CAC6BA" stroke="#1C2B33" stroke-width="2"/>
<rect x="600" y="360" width="348" height="12" rx="0" fill="#CAC6BA" stroke="#1C2B33" stroke-width="2"/>
<rect x="681.0" y="396" width="32" height="46" rx="0" fill="#9FB4BD" stroke="#1C2B33" stroke-width="1" opacity="0.9"/>
<rect x="729.0" y="396" width="32" height="46" rx="0" fill="#9FB4BD" stroke="#1C2B33" stroke-width="1" opacity="0.9"/>
<rect x="777.0" y="396" width="32" height="46" rx="0" fill="#9FB4BD" stroke="#1C2B33" stroke-width="1" opacity="0.9"/>
<rect x="825.0" y="396" width="32" height="46" rx="0" fill="#9FB4BD" stroke="#1C2B33" stroke-width="1" opacity="0.9"/>
<rect x="681.0" y="551" width="32" height="46" rx="0" fill="#9FB4BD" stroke="#1C2B33" stroke-width="1" opacity="0.9"/>
<rect x="729.0" y="551" width="32" height="46" rx="0" fill="#9FB4BD" stroke="#1C2B33" stroke-width="1" opacity="0.9"/>
<rect x="777.0" y="551" width="32" height="46" rx="0" fill="#9FB4BD" stroke="#1C2B33" stroke-width="1" opacity="0.9"/>
<rect x="825.0" y="551" width="32" height="46" rx="0" fill="#9FB4BD" stroke="#1C2B33" stroke-width="1" opacity="0.9"/>
<rect x="1000" y="215" width="580" height="465" rx="0" fill="#C1BDB3" stroke="#1C2B33" stroke-width="2"/>
<rect x="1000" y="205" width="588" height="12" rx="0" fill="#C1BDB3" stroke="#1C2B33" stroke-width="2"/>
<rect x="1105.0" y="241" width="32" height="46" rx="0" fill="#9FB4BD" stroke="#1C2B33" stroke-width="1" opacity="0.9"/>
<rect x="1153.0" y="241" width="32" height="46" rx="0" fill="#9FB4BD" stroke="#1C2B33" stroke-width="1" opacity="0.9"/>
<rect x="1201.0" y="241" width="32" height="46" rx="0" fill="#9FB4BD" stroke="#1C2B33" stroke-width="1" opacity="0.9"/>
<rect x="1249.0" y="241" width="32" height="46" rx="0" fill="#9FB4BD" stroke="#1C2B33" stroke-width="1" opacity="0.9"/>
<rect x="1297.0" y="241" width="32" height="46" rx="0" fill="#9FB4BD" stroke="#1C2B33" stroke-width="1" opacity="0.9"/>
<rect x="1345.0" y="241" width="32" height="46" rx="0" fill="#9FB4BD" stroke="#1C2B33" stroke-width="1" opacity="0.9"/>
<rect x="1393.0" y="241" width="32" height="46" rx="0" fill="#9FB4BD" stroke="#1C2B33" stroke-width="1" opacity="0.9"/>
<rect x="1441.0" y="241" width="32" height="46" rx="0" fill="#9FB4BD" stroke="#1C2B33" stroke-width="1" opacity="0.9"/>
<rect x="1105.0" y="396" width="32" height="46" rx="0" fill="#9FB4BD" stroke="#1C2B33" stroke-width="1" opacity="0.9"/>
<rect x="1153.0" y="396" width="32" height="46" rx="0" fill="#9FB4BD" stroke="#1C2B33" stroke-width="1" opacity="0.9"/>
<rect x="1201.0" y="396" width="32" height="46" rx="0" fill="#9FB4BD" stroke="#1C2B33" stroke-width="1" opacity="0.9"/>
<rect x="1249.0" y="396" width="32" height="46" rx="0" fill="#9FB4BD" stroke="#1C2B33" stroke-width="1" opacity="0.9"/>
<rect x="1297.0" y="396" width="32" height="46" rx="0" fill="#9FB4BD" stroke="#1C2B33" stroke-width="1" opacity="0.9"/>
<rect x="1345.0" y="396" width="32" height="46" rx="0" fill="#9FB4BD" stroke="#1C2B33" stroke-width="1" opacity="0.9"/>
<rect x="1393.0" y="396" width="32" height="46" rx="0" fill="#9FB4BD" stroke="#1C2B33" stroke-width="1" opacity="0.9"/>
<rect x="1441.0" y="396" width="32" height="46" rx="0" fill="#9FB4BD" stroke="#1C2B33" stroke-width="1" opacity="0.9"/>
<rect x="1105.0" y="551" width="32" height="46" rx="0" fill="#9FB4BD" stroke="#1C2B33" stroke-width="1" opacity="0.9"/>
<rect x="1153.0" y="551" width="32" height="46" rx="0" fill="#9FB4BD" stroke="#1C2B33" stroke-width="1" opacity="0.9"/>
<rect x="1201.0" y="551" width="32" height="46" rx="0" fill="#9FB4BD" stroke="#1C2B33" stroke-width="1" opacity="0.9"/>
<rect x="1249.0" y="551" width="32" height="46" rx="0" fill="#9FB4BD" stroke="#1C2B33" stroke-width="1" opacity="0.9"/>
<rect x="1297.0" y="551" width="32" height="46" rx="0" fill="#9FB4BD" stroke="#1C2B33" stroke-width="1" opacity="0.9"/>
<rect x="1345.0" y="551" width="32" height="46" rx="0" fill="#9FB4BD" stroke="#1C2B33" stroke-width="1" opacity="0.9"/>
<rect x="1393.0" y="551" width="32" height="46" rx="0" fill="#9FB4BD" stroke="#1C2B33" stroke-width="1" opacity="0.9"/>
<rect x="1441.0" y="551" width="32" height="46" rx="0" fill="#9FB4BD" stroke="#1C2B33" stroke-width="1" opacity="0.9"/>
</g>
<g id="20_subject">
<rect x="240" y="530.0" width="260.0" height="150.0" rx="0" fill="#C4CBB8" stroke="#1C2B33" stroke-width="2"/>
<line x1="240.0" y1="530.0" x2="240.0" y2="680" stroke="#1C2B33" stroke-width="1" stroke-linecap="round" opacity="0.35"/>
<line x1="300.0" y1="530.0" x2="300.0" y2="680" stroke="#1C2B33" stroke-width="1" stroke-linecap="round" opacity="0.35"/>
<line x1="360.0" y1="530.0" x2="360.0" y2="680" stroke="#1C2B33" stroke-width="1" stroke-linecap="round" opacity="0.35"/>
<line x1="420.0" y1="530.0" x2="420.0" y2="680" stroke="#1C2B33" stroke-width="1" stroke-linecap="round" opacity="0.35"/>
<rect x="680" y="615.6" width="168.0" height="11.2" rx="0" fill="#8A6E52" stroke="#1C2B33" stroke-width="1.4"/>
<line x1="696.8" y1="626.8" x2="696.8" y2="680" stroke="#8A6E52" stroke-width="6" stroke-linecap="round"/>
<line x1="831.2" y1="626.8" x2="831.2" y2="680" stroke="#8A6E52" stroke-width="6" stroke-linecap="round"/>

<rect x="1060" y="627.2" width="64.8" height="52.8" rx="0" fill="#C9A97A" stroke="#1C2B33" stroke-width="1.6"/>
<line x1="1060" y1="648.8" x2="1124.8" y2="648.8" stroke="#1C2B33" stroke-width="1.2" stroke-linecap="round" opacity="0.6"/>
<rect x="1150" y="640.4" width="94.60000000000001" height="39.6" rx="0" fill="#B9C7CC" stroke="#1C2B33" stroke-width="1.6"/>
<line x1="1156.6" y1="647.0" x2="1238.0" y2="647.0" stroke="#1C2B33" stroke-width="1" stroke-linecap="round" opacity="0.5"/>
<line x1="1156.6" y1="659.1" x2="1238.0" y2="659.1" stroke="#1C2B33" stroke-width="1" stroke-linecap="round" opacity="0.5"/>
<line x1="1156.6" y1="671.2" x2="1238.0" y2="671.2" stroke="#1C2B33" stroke-width="1" stroke-linecap="round" opacity="0.5"/>
<line x1="120" y1="680" x2="120" y2="610.0" stroke="#6E7B82" stroke-width="6" stroke-linecap="round"/>
<rect x="83.6" y="577.8" width="72.8" height="33.599999999999994" rx="4" fill="#FFFFFF" stroke="#1C2B33" stroke-width="2"/>
<text x="120" y="598.8" font-family="Inter, DejaVu Sans, sans-serif" font-size="12" fill="#1C2B33" text-anchor="middle" font-weight="600" font-style="normal">VACANCY</text>
<line x1="560" y1="680" x2="560" y2="610.0" stroke="#6E7B82" stroke-width="6" stroke-linecap="round"/>
<rect x="523.6" y="577.8" width="72.8" height="33.599999999999994" rx="4" fill="#FFFFFF" stroke="#1C2B33" stroke-width="2"/>
<text x="560" y="598.8" font-family="Inter, DejaVu Sans, sans-serif" font-size="12" fill="#1C2B33" text-anchor="middle" font-weight="600" font-style="normal">11 mo</text>
<line x1="1520" y1="680" x2="1520" y2="610.0" stroke="#6E7B82" stroke-width="6" stroke-linecap="round"/>
<rect x="1483.6" y="577.8" width="72.8" height="33.599999999999994" rx="4" fill="#FFFFFF" stroke="#1C2B33" stroke-width="2"/>
<text x="1520" y="598.8" font-family="Inter, DejaVu Sans, sans-serif" font-size="12" fill="#1C2B33" text-anchor="middle" font-weight="600" font-style="normal">FRI</text>
<ellipse cx="330" cy="681.5529411764705" rx="11.388235294117647" ry="2.588235294117647" fill="#1C2B33" opacity="0.10"/>
<path d="M 325.3411764705882 680 L 326.3764705882353 639.52" fill="none" stroke="#3A4A55" stroke-width="5.176470588235294" stroke-linecap="round" stroke-linejoin="round"/>
<path d="M 334.6588235294118 680 L 333.6235294117647 639.52" fill="none" stroke="#3A4A55" stroke-width="5.176470588235294" stroke-linecap="round" stroke-linejoin="round"/>
<path d="M 330.0 612.7058823529411 L 330 641.5905882352941" fill="none" stroke="#4A5A66" stroke-width="12.423529411764708" stroke-linecap="round" stroke-linejoin="round"/>
<path d="M 320.16470588235296 613.2235294117646 L 339.83529411764704 613.2235294117646" fill="none" stroke="#4A5A66" stroke-width="6.729411764705883" stroke-linecap="round" stroke-linejoin="round"/>
<path d="M 320.16470588235296 614.2588235294116 L 318.61176470588236 644.6964705882352" fill="none" stroke="#4A5A66" stroke-width="4.658823529411765" stroke-linecap="round" stroke-linejoin="round"/>
<circle cx="318.61176470588236" cy="646.2494117647059" r="2.588235294117647" fill="#E8C39E"/>
<path d="M 339.83529411764704 614.2588235294116 L 353.2941176470588 611.6705882352941" fill="none" stroke="#4A5A66" stroke-width="4.658823529411765" stroke-linecap="round" stroke-linejoin="round"/>
<circle cx="355.36470588235295" cy="611.1529411764706" r="2.588235294117647" fill="#E8C39E"/>
<path d="M 330.0 610.1176470588234 L 330.0 607.5294117647059" fill="none" stroke="#E8C39E" stroke-width="5.176470588235294" stroke-linecap="round" stroke-linejoin="round"/>
<circle cx="330.0" cy="600.8" r="7.764705882352942" fill="#E8C39E"/>
<path d="M 322.2352941176471 599.7647058823529 A 7.764705882352942 7.764705882352942 0 0 1 337.7647058823529 599.7647058823529" fill="none" stroke="#B9B2AA" stroke-width="3.6235294117647063" stroke-linecap="round" stroke-linejoin="round"/>
<circle cx="327.4117647058824" cy="601.3176470588235" r="0.931764705882353" fill="#2A2320"/>
<circle cx="332.5882352941176" cy="601.3176470588235" r="0.931764705882353" fill="#2A2320"/>
<path d="M 327.9294117647059 604.9411764705882 Q 330.0 605.9764705882352 332.0705882352941 604.9411764705882" fill="none" stroke="#8A5A48" stroke-width="0.8282352941176472" stroke-linecap="round" stroke-linejoin="round"/>
<ellipse cx="450" cy="681.535294117647" rx="11.258823529411764" ry="2.5588235294117645" fill="#1C2B33" opacity="0.10"/>
<path d="M 445.3941176470588 680 L 446.41764705882355 639.98" fill="none" stroke="#3A4A55" stroke-width="5.117647058823529" stroke-linecap="round" stroke-linejoin="round"/>
<path d="M 454.6058823529412 680 L 453.58235294117645 639.98" fill="none" stroke="#3A4A55" stroke-width="5.117647058823529" stroke-linecap="round" stroke-linejoin="round"/>
<path d="M 450.0 613.470588235294 L 450 642.0270588235294" fill="none" stroke="#1F4E5F" stroke-width="12.28235294117647" stroke-linecap="round" stroke-linejoin="round"/>
<path d="M 440.27647058823527 613.9823529411764 L 459.72352941176473 613.9823529411764" fill="none" stroke="#1F4E5F" stroke-width="6.652941176470588" stroke-linecap="round" stroke-linejoin="round"/>
<path d="M 440.27647058823527 615.0058823529411 L 444.3705882352941 637.9329411764706" fill="none" stroke="#1F4E5F" stroke-width="4.605882352941176" stroke-linecap="round" stroke-linejoin="round"/>
<path d="M 459.72352941176473 615.0058823529411 L 455.6294117647059 637.9329411764706" fill="none" stroke="#1F4E5F" stroke-width="4.605882352941176" stroke-linecap="round" stroke-linejoin="round"/>
<circle cx="450" cy="637.9329411764706" r="2.814705882352941" fill="#8D5A3B"/>
<path d="M 450.0 610.9117647058822 L 450.0 608.3529411764705" fill="none" stroke="#8D5A3B" stroke-width="5.117647058823529" stroke-linecap="round" stroke-linejoin="round"/>
<circle cx="450.0" cy="601.6999999999999" r="7.6764705882352935" fill="#8D5A3B"/>
<path d="M 442.3235294117647 600.6764705882352 A 7.6764705882352935 7.6764705882352935 0 0 1 457.6764705882353 600.6764705882352" fill="none" stroke="#2A2320" stroke-width="3.5823529411764703" stroke-linecap="round" stroke-linejoin="round"/>
<circle cx="447.44117647058823" cy="602.2117647058823" r="0.9211764705882353" fill="#2A2320"/>
<circle cx="452.55882352941177" cy="602.2117647058823" r="0.9211764705882353" fill="#2A2320"/>
<path d="M 447.9529411764706 605.7941176470588 Q 450.0 606.8176470588235 452.0470588235294 605.7941176470588" fill="none" stroke="#8A5A48" stroke-width="0.8188235294117647" stroke-linecap="round" stroke-linejoin="round"/>
<ellipse cx="760" cy="681.5529411764705" rx="11.388235294117647" ry="2.588235294117647" fill="#1C2B33" opacity="0.10"/>
<path d="M 755.3411764705883 680 L 756.3764705882353 639.52" fill="none" stroke="#3A4A55" stroke-width="5.176470588235294" stroke-linecap="round" stroke-linejoin="round"/>
<path d="M 764.6588235294117 680 L 763.6235294117647 639.52" fill="none" stroke="#3A4A55" stroke-width="5.176470588235294" stroke-linecap="round" stroke-linejoin="round"/>
<path d="M 760.0 612.7058823529411 L 760 641.5905882352941" fill="none" stroke="#C86B2B" stroke-width="12.423529411764708" stroke-linecap="round" stroke-linejoin="round"/>
<path d="M 750.1647058823529 613.2235294117646 L 769.8352941176471 613.2235294117646" fill="none" stroke="#C86B2B" stroke-width="6.729411764705883" stroke-linecap="round" stroke-linejoin="round"/>
<path d="M 750.1647058823529 614.2588235294116 L 748.6117647058824 644.6964705882352" fill="none" stroke="#C86B2B" stroke-width="4.658823529411765" stroke-linecap="round" stroke-linejoin="round"/>
<circle cx="748.6117647058824" cy="646.2494117647059" r="2.588235294117647" fill="#6B4229"/>
<path d="M 769.8352941176471 614.2588235294116 L 771.3882352941176 644.6964705882352" fill="none" stroke="#C86B2B" stroke-width="4.658823529411765" stroke-linecap="round" stroke-linejoin="round"/>
<circle cx="771.3882352941176" cy="646.2494117647059" r="2.588235294117647" fill="#6B4229"/>
<path d="M 760.0 610.1176470588234 L 760.0 607.5294117647059" fill="none" stroke="#6B4229" stroke-width="5.176470588235294" stroke-linecap="round" stroke-linejoin="round"/>
<circle cx="760.0" cy="600.8" r="7.764705882352942" fill="#6B4229"/>
<path d="M 752.2352941176471 599.7647058823529 A 7.764705882352942 7.764705882352942 0 0 1 767.7647058823529 599.7647058823529" fill="none" stroke="#2A2320" stroke-width="3.6235294117647063" stroke-linecap="round" stroke-linejoin="round"/>
<circle cx="770.3529411764706" cy="599.2470588235294" r="3.6235294117647063" fill="#2A2320" stroke="none" stroke-width="1.5"/>
<circle cx="757.4117647058823" cy="601.3176470588235" r="0.931764705882353" fill="#2A2320"/>
<circle cx="762.5882352941177" cy="601.3176470588235" r="0.931764705882353" fill="#2A2320"/>
<path d="M 757.9294117647058 604.9411764705882 Q 760.0 605.9764705882352 762.0705882352942 604.9411764705882" fill="none" stroke="#8A5A48" stroke-width="0.8282352941176472" stroke-linecap="round" stroke-linejoin="round"/>
<ellipse cx="1120" cy="681.535294117647" rx="11.258823529411764" ry="2.5588235294117645" fill="#1C2B33" opacity="0.10"/>
<path d="M 1115.394117647059 680 L 1116.4176470588236 639.98" fill="none" stroke="#3A4A55" stroke-width="5.117647058823529" stroke-linecap="round" stroke-linejoin="round"/>
<path d="M 1124.605882352941 680 L 1123.5823529411764 639.98" fill="none" stroke="#3A4A55" stroke-width="5.117647058823529" stroke-linecap="round" stroke-linejoin="round"/>
<path d="M 1120.0 613.470588235294 L 1120 642.0270588235294" fill="none" stroke="#2E6F5E" stroke-width="12.28235294117647" stroke-linecap="round" stroke-linejoin="round"/>
<path d="M 1110.2764705882353 613.9823529411764 L 1129.7235294117647 613.9823529411764" fill="none" stroke="#2E6F5E" stroke-width="6.652941176470588" stroke-linecap="round" stroke-linejoin="round"/>
<path d="M 1110.2764705882353 615.0058823529411 L 1114.370588235294 637.9329411764706" fill="none" stroke="#2E6F5E" stroke-width="4.605882352941176" stroke-linecap="round" stroke-linejoin="round"/>
<path d="M 1129.7235294117647 615.0058823529411 L 1125.629411764706 637.9329411764706" fill="none" stroke="#2E6F5E" stroke-width="4.605882352941176" stroke-linecap="round" stroke-linejoin="round"/>
<circle cx="1120" cy="637.9329411764706" r="2.814705882352941" fill="#C98E63"/>
<path d="M 1120.0 610.9117647058822 L 1120.0 608.3529411764705" fill="none" stroke="#C98E63" stroke-width="5.117647058823529" stroke-linecap="round" stroke-linejoin="round"/>
<circle cx="1120.0" cy="601.6999999999999" r="7.6764705882352935" fill="#C98E63"/>
<path d="M 1112.3235294117646 600.6764705882352 A 7.6764705882352935 7.6764705882352935 0 0 1 1127.6764705882354 600.6764705882352" fill="none" stroke="#2A2320" stroke-width="3.5823529411764703" stroke-linecap="round" stroke-linejoin="round"/>
<path d="M 1111.8117647058823 601.6999999999999 L 1111.8117647058823 611.935294117647" fill="none" stroke="#2A2320" stroke-width="3.5823529411764703" stroke-linecap="round" stroke-linejoin="round"/>
<path d="M 1128.1882352941177 601.6999999999999 L 1128.1882352941177 611.935294117647" fill="none" stroke="#2A2320" stroke-width="3.5823529411764703" stroke-linecap="round" stroke-linejoin="round"/>
<circle cx="1117.4411764705883" cy="602.2117647058823" r="0.9211764705882353" fill="#2A2320"/>
<circle cx="1122.5588235294117" cy="602.2117647058823" r="0.9211764705882353" fill="#2A2320"/>
<path d="M 1117.9529411764706 605.7941176470588 Q 1120.0 606.8176470588235 1122.0470588235294 605.7941176470588" fill="none" stroke="#8A5A48" stroke-width="0.8188235294117647" stroke-linecap="round" stroke-linejoin="round"/>
<ellipse cx="1330" cy="681.5529411764705" rx="11.388235294117647" ry="2.588235294117647" fill="#1C2B33" opacity="0.10"/>
<path d="M 1325.3411764705882 680 L 1326.3764705882354 639.52" fill="none" stroke="#3A4A55" stroke-width="5.176470588235294" stroke-linecap="round" stroke-linejoin="round"/>
<path d="M 1334.6588235294118 680 L 1333.6235294117646 639.52" fill="none" stroke="#3A4A55" stroke-width="5.176470588235294" stroke-linecap="round" stroke-linejoin="round"/>
<path d="M 1330.0 612.7058823529411 L 1330 641.5905882352941" fill="none" stroke="#8C6A9E" stroke-width="12.423529411764708" stroke-linecap="round" stroke-linejoin="round"/>
<path d="M 1320.164705882353 613.2235294117646 L 1339.835294117647 613.2235294117646" fill="none" stroke="#8C6A9E" stroke-width="6.729411764705883" stroke-linecap="round" stroke-linejoin="round"/>
<path d="M 1320.164705882353 614.7764705882353 L 1336.729411764706 624.0941176470587" fill="none" stroke="#8C6A9E" stroke-width="4.658823529411765" stroke-linecap="round" stroke-linejoin="round"/>
<circle cx="1337.764705882353" cy="624.6117647058823" r="2.588235294117647" fill="#F0D3B4"/>
<path d="M 1339.835294117647 614.7764705882353 L 1323.270588235294 626.1647058823529" fill="none" stroke="#8C6A9E" stroke-width="4.658823529411765" stroke-linecap="round" stroke-linejoin="round"/>
<circle cx="1322.235294117647" cy="626.6823529411764" r="2.588235294117647" fill="#F0D3B4"/>
<path d="M 1330.0 610.1176470588234 L 1330.0 607.5294117647059" fill="none" stroke="#F0D3B4" stroke-width="5.176470588235294" stroke-linecap="round" stroke-linejoin="round"/>
<circle cx="1330.0" cy="600.8" r="7.764705882352942" fill="#F0D3B4"/>
<path d="M 1321.7176470588236 600.2823529411764 A 8.764705882352942 8.764705882352942 0 0 1 1338.2823529411764 600.2823529411764 Z" fill="#30555F" stroke="none" stroke-width="1.5" stroke-linecap="round" stroke-linejoin="round"/>
<path d="M 1330.0 600.2823529411764 L 1343.4588235294118 599.7647058823529 L 1342.4235294117648 601.835294117647 L 1330.0 601.835294117647 Z" fill="#26454E" stroke="none" stroke-width="1.5" stroke-linecap="round" stroke-linejoin="round"/>
<circle cx="1327.4117647058824" cy="601.3176470588235" r="0.931764705882353" fill="#2A2320"/>
<circle cx="1332.5882352941176" cy="601.3176470588235" r="0.931764705882353" fill="#2A2320"/>
<path d="M 1327.929411764706 604.9411764705882 Q 1330.0 605.9764705882352 1332.070588235294 604.9411764705882" fill="none" stroke="#8A5A48" stroke-width="0.8282352941176472" stroke-linecap="round" stroke-linejoin="round"/>
</g>
<g id="30_detail">
<circle cx="330" cy="560" r="16" fill="#FFFFFF" stroke="#C86B2B" stroke-width="2.6" opacity="0.96"/>
<text x="330" y="565" font-family="Inter, DejaVu Sans, sans-serif" font-size="12" fill="#C86B2B" text-anchor="middle" font-weight="700" font-style="normal">1</text>
<circle cx="450" cy="560" r="16" fill="#FFFFFF" stroke="#C86B2B" stroke-width="2.6" opacity="0.96"/>
<text x="450" y="565" font-family="Inter, DejaVu Sans, sans-serif" font-size="12" fill="#C86B2B" text-anchor="middle" font-weight="700" font-style="normal">2</text>
<circle cx="760" cy="560" r="16" fill="#FFFFFF" stroke="#C86B2B" stroke-width="2.6" opacity="0.96"/>
<text x="760" y="565" font-family="Inter, DejaVu Sans, sans-serif" font-size="12" fill="#C86B2B" text-anchor="middle" font-weight="700" font-style="normal">3</text>
<circle cx="1120" cy="560" r="16" fill="#FFFFFF" stroke="#C86B2B" stroke-width="2.6" opacity="0.96"/>
<text x="1120" y="565" font-family="Inter, DejaVu Sans, sans-serif" font-size="12" fill="#C86B2B" text-anchor="middle" font-weight="700" font-style="normal">4</text>
<circle cx="1330" cy="560" r="16" fill="#FFFFFF" stroke="#C86B2B" stroke-width="2.6" opacity="0.96"/>
<text x="1330" y="565" font-family="Inter, DejaVu Sans, sans-serif" font-size="12" fill="#C86B2B" text-anchor="middle" font-weight="700" font-style="normal">5</text>
<circle cx="120" cy="612" r="16" fill="#FFFFFF" stroke="#C86B2B" stroke-width="2.6" opacity="0.96"/>
<text x="120" y="617" font-family="Inter, DejaVu Sans, sans-serif" font-size="12" fill="#C86B2B" text-anchor="middle" font-weight="700" font-style="normal">6</text>
<circle cx="560" cy="612" r="16" fill="#FFFFFF" stroke="#C86B2B" stroke-width="2.6" opacity="0.96"/>
<text x="560" y="617" font-family="Inter, DejaVu Sans, sans-serif" font-size="12" fill="#C86B2B" text-anchor="middle" font-weight="700" font-style="normal">7</text>
<circle cx="1520" cy="612" r="16" fill="#FFFFFF" stroke="#C86B2B" stroke-width="2.6" opacity="0.96"/>
<text x="1520" y="617" font-family="Inter, DejaVu Sans, sans-serif" font-size="12" fill="#C86B2B" text-anchor="middle" font-weight="700" font-style="normal">8</text>
<circle cx="240" cy="624" r="16" fill="#FFFFFF" stroke="#C86B2B" stroke-width="2.6" opacity="0.96"/>
<text x="240" y="629" font-family="Inter, DejaVu Sans, sans-serif" font-size="12" fill="#C86B2B" text-anchor="middle" font-weight="700" font-style="normal">9</text>
<circle cx="680" cy="632" r="16" fill="#FFFFFF" stroke="#C86B2B" stroke-width="2.6" opacity="0.96"/>
<text x="680" y="637" font-family="Inter, DejaVu Sans, sans-serif" font-size="12" fill="#C86B2B" text-anchor="middle" font-weight="700" font-style="normal">10</text>
<circle cx="1060" cy="628" r="16" fill="#FFFFFF" stroke="#C86B2B" stroke-width="2.6" opacity="0.96"/>
<text x="1060" y="633" font-family="Inter, DejaVu Sans, sans-serif" font-size="12" fill="#C86B2B" text-anchor="middle" font-weight="700" font-style="normal">11</text>
</g>
<g id="40_callouts">
<rect x="0" y="0" width="1600" height="118" rx="0" fill="#FBF7F0" opacity="0.82"/>
<rect x="0" y="682" width="1600" height="158" rx="0" fill="#FBF7F0" opacity="0.78"/>
<text x="800.0" y="46" font-family="Inter, DejaVu Sans, sans-serif" font-size="30" fill="#1F4E5F" text-anchor="middle" font-weight="700" font-style="normal">The staff corridor, Wednesday</text>
<text x="800.0" y="72" font-family="Inter, DejaVu Sans, sans-serif" font-size="15" fill="#55646D" text-anchor="middle" font-weight="400" font-style="normal">Eleven things to find. Four of them are about somebody's future.</text>
<text x="280.0" y="191" font-family="Inter, DejaVu Sans, sans-serif" font-size="15" fill="#1F4E5F" text-anchor="middle" font-weight="600" font-style="normal">the staff corridor</text>
<text x="770.0" y="346" font-family="Inter, DejaVu Sans, sans-serif" font-size="15" fill="#1F4E5F" text-anchor="middle" font-weight="600" font-style="normal">the office</text>
<text x="1290.0" y="191" font-family="Inter, DejaVu Sans, sans-serif" font-size="15" fill="#1F4E5F" text-anchor="middle" font-weight="600" font-style="normal">emergency</text>
<line x1="330" y1="686" x2="330" y2="714" stroke="#55646D" stroke-width="1.2" stroke-linecap="round" opacity="0.7"/>
<text x="330" y="730" font-family="Inter, DejaVu Sans, sans-serif" font-size="12" fill="#55646D" text-anchor="middle" font-weight="400" font-style="normal">Dr Herrera, since 2007</text>
<line x1="450" y1="686" x2="450" y2="744" stroke="#55646D" stroke-width="1.2" stroke-linecap="round" opacity="0.7"/>
<text x="450" y="760" font-family="Inter, DejaVu Sans, sans-serif" font-size="12" fill="#55646D" text-anchor="middle" font-weight="400" font-style="normal">Dr Benitez, locum, week three</text>
<line x1="760" y1="686" x2="760" y2="714" stroke="#55646D" stroke-width="1.2" stroke-linecap="round" opacity="0.7"/>
<text x="760" y="730" font-family="Inter, DejaVu Sans, sans-serif" font-size="12" fill="#55646D" text-anchor="middle" font-weight="400" font-style="normal">Rosa, holding the leaving card</text>
<line x1="1120" y1="686" x2="1120" y2="744" stroke="#55646D" stroke-width="1.2" stroke-linecap="round" opacity="0.7"/>
<text x="1120" y="760" font-family="Inter, DejaVu Sans, sans-serif" font-size="12" fill="#55646D" text-anchor="middle" font-weight="400" font-style="normal">Carla, off the rota at eight</text>
<line x1="1330" y1="686" x2="1330" y2="714" stroke="#55646D" stroke-width="1.2" stroke-linecap="round" opacity="0.7"/>
<text x="1330" y="730" font-family="Inter, DejaVu Sans, sans-serif" font-size="12" fill="#55646D" text-anchor="middle" font-weight="400" font-style="normal">Ignacio, who knows every pipe</text>
<line x1="120" y1="686" x2="120" y2="744" stroke="#55646D" stroke-width="1.2" stroke-linecap="round" opacity="0.7"/>
<text x="120" y="760" font-family="Inter, DejaVu Sans, sans-serif" font-size="12" fill="#55646D" text-anchor="middle" font-weight="400" font-style="normal">advertised four times</text>
<line x1="560" y1="686" x2="560" y2="714" stroke="#55646D" stroke-width="1.2" stroke-linecap="round" opacity="0.7"/>
<text x="560" y="730" font-family="Inter, DejaVu Sans, sans-serif" font-size="12" fill="#55646D" text-anchor="middle" font-weight="400" font-style="normal">how long it has been empty</text>
</g>
</svg>
