<svg xmlns="http://www.w3.org/2000/svg" width="1600" height="900" viewBox="0 0 1600 900">
<title>Mariam's workshop, Thursday, 14.20</title>
<desc>A textile workshop seen in section, with cutting table, overlockers, bolts of cloth, a rail of finished jackets and three people working.</desc>
<g id="00_ground">
<rect x="0" y="0" width="1600" height="900" rx="0" fill="#FBF7F0"/>
</g>
<g id="10_context">
<rect x="0" y="0" width="1600" height="720" rx="0" fill="#EDE6DA"/>
<rect x="0" y="720" width="1600" height="180" rx="0" fill="#B6A68E"/>
<rect x="0" y="720" width="1600" height="26" rx="0" fill="#1C2B33" opacity="0.07"/>
<line x1="0" y1="720" x2="1600" y2="720" stroke="#1C2B33" stroke-width="2.2" stroke-linecap="round" opacity="0.35"/>
<rect x="60" y="120" width="1480" height="600" rx="0" fill="#F4EEE2" stroke="#1C2B33" stroke-width="2"/>
<rect x="60" y="110" width="1488" height="12" rx="0" fill="#F4EEE2" stroke="#1C2B33" stroke-width="2"/>
<rect x="60" y="120" width="1480" height="600" rx="0" fill="#FFFFFF" opacity="0.9"/>
<line x1="60" y1="120" x2="1540" y2="120" stroke="#1C2B33" stroke-width="1.6" stroke-linecap="round" opacity="0.55"/>
<line x1="60" y1="270" x2="1540" y2="270" stroke="#1C2B33" stroke-width="1.6" stroke-linecap="round" opacity="0.55"/>
<line x1="60" y1="420" x2="1540" y2="420" stroke="#1C2B33" stroke-width="1.6" stroke-linecap="round" opacity="0.55"/>
<line x1="60" y1="570" x2="1540" y2="570" stroke="#1C2B33" stroke-width="1.6" stroke-linecap="round" opacity="0.55"/>
<path d="M 60 120 L 68 144 L 52 168 L 68 192 L 52 216 L 68 240 L 52 264 L 68 288 L 52 312 L 68 336 L 52 360 L 68 384 L 52 408 L 68 432 L 52 456 L 68 480 L 52 504 L 68 528 L 52 552 L 68 576 L 52 600 L 68 624 L 52 648 L 68 672 L 52 696 L 68 720 L 60 720" fill="none" stroke="#C86B2B" stroke-width="2.6" stroke-linecap="round" stroke-linejoin="round"/>
</g>
<g id="20_subject">
<rect x="200" y="646.4" width="192.0" height="12.8" rx="0" fill="#8A6E52" stroke="#1C2B33" stroke-width="1.4"/>
<line x1="219.2" y1="659.2" x2="219.2" y2="720" stroke="#8A6E52" stroke-width="6" stroke-linecap="round"/>
<line x1="372.8" y1="659.2" x2="372.8" y2="720" stroke="#8A6E52" stroke-width="6" stroke-linecap="round"/>
<rect x="420" y="646.4" width="192.0" height="12.8" rx="0" fill="#8A6E52" stroke="#1C2B33" stroke-width="1.4"/>
<line x1="439.2" y1="659.2" x2="439.2" y2="720" stroke="#8A6E52" stroke-width="6" stroke-linecap="round"/>
<line x1="592.8" y1="659.2" x2="592.8" y2="720" stroke="#8A6E52" stroke-width="6" stroke-linecap="round"/>
<rect x="700" y="684.0" width="86.0" height="36.0" rx="0" fill="#B9C7CC" stroke="#1C2B33" stroke-width="1.6"/>
<line x1="706.0" y1="690.0" x2="780.0" y2="690.0" stroke="#1C2B33" stroke-width="1" stroke-linecap="round" opacity="0.5"/>
<line x1="706.0" y1="701.0" x2="780.0" y2="701.0" stroke="#1C2B33" stroke-width="1" stroke-linecap="round" opacity="0.5"/>
<line x1="706.0" y1="712.0" x2="780.0" y2="712.0" stroke="#1C2B33" stroke-width="1" stroke-linecap="round" opacity="0.5"/>
<rect x="800" y="684.0" width="86.0" height="36.0" rx="0" fill="#B9C7CC" stroke="#1C2B33" stroke-width="1.6"/>
<line x1="806.0" y1="690.0" x2="880.0" y2="690.0" stroke="#1C2B33" stroke-width="1" stroke-linecap="round" opacity="0.5"/>
<line x1="806.0" y1="701.0" x2="880.0" y2="701.0" stroke="#1C2B33" stroke-width="1" stroke-linecap="round" opacity="0.5"/>
<line x1="806.0" y1="712.0" x2="880.0" y2="712.0" stroke="#1C2B33" stroke-width="1" stroke-linecap="round" opacity="0.5"/>
<rect x="980" y="667.2" width="64.8" height="52.8" rx="0" fill="#C9A97A" stroke="#1C2B33" stroke-width="1.6"/>
<line x1="980" y1="688.8" x2="1044.8" y2="688.8" stroke="#1C2B33" stroke-width="1.2" stroke-linecap="round" opacity="0.6"/>
<rect x="1060" y="667.2" width="64.8" height="52.8" rx="0" fill="#C9A97A" stroke="#1C2B33" stroke-width="1.6"/>
<line x1="1060" y1="688.8" x2="1124.8" y2="688.8" stroke="#1C2B33" stroke-width="1.2" stroke-linecap="round" opacity="0.6"/>
<rect x="1140" y="667.2" width="64.8" height="52.8" rx="0" fill="#C9A97A" stroke="#1C2B33" stroke-width="1.6"/>
<line x1="1140" y1="688.8" x2="1204.8" y2="688.8" stroke="#1C2B33" stroke-width="1.2" stroke-linecap="round" opacity="0.6"/>
<line x1="1420" y1="720" x2="1420" y2="650.0" stroke="#6E7B82" stroke-width="6" stroke-linecap="round"/>
<rect x="1383.6" y="617.8" width="72.8" height="33.599999999999994" rx="4" fill="#FFFFFF" stroke="#1C2B33" stroke-width="2"/>
<text x="1420" y="638.8" font-family="Inter, DejaVu Sans, sans-serif" font-size="12" fill="#1C2B33" text-anchor="middle" font-weight="600" font-style="normal">DUE 6 WKS</text>
<ellipse cx="262" cy="721.5176470588235" rx="11.129411764705882" ry="2.5294117647058822" fill="#1C2B33" opacity="0.10"/>
<path d="M 257.4470588235294 720 L 258.45882352941175 680.44" fill="none" stroke="#3A4A55" stroke-width="5.0588235294117645" stroke-linecap="round" stroke-linejoin="round"/>
<path d="M 266.5529411764706 720 L 265.54117647058825 680.44" fill="none" stroke="#3A4A55" stroke-width="5.0588235294117645" stroke-linecap="round" stroke-linejoin="round"/>
<path d="M 262.0 654.2352941176471 L 262 682.4635294117647" fill="none" stroke="#C86B2B" stroke-width="12.141176470588235" stroke-linecap="round" stroke-linejoin="round"/>
<path d="M 252.38823529411764 654.7411764705882 L 271.61176470588236 654.7411764705882" fill="none" stroke="#C86B2B" stroke-width="6.576470588235294" stroke-linecap="round" stroke-linejoin="round"/>
<path d="M 252.38823529411764 655.7529411764706 L 256.43529411764706 678.4164705882354" fill="none" stroke="#C86B2B" stroke-width="4.552941176470588" stroke-linecap="round" stroke-linejoin="round"/>
<path d="M 271.61176470588236 655.7529411764706 L 267.56470588235294 678.4164705882354" fill="none" stroke="#C86B2B" stroke-width="4.552941176470588" stroke-linecap="round" stroke-linejoin="round"/>
<circle cx="262" cy="678.4164705882354" r="2.7823529411764705" fill="#E8C39E"/>
<path d="M 262.0 651.7058823529412 L 262.0 649.1764705882354" fill="none" stroke="#E8C39E" stroke-width="5.0588235294117645" stroke-linecap="round" stroke-linejoin="round"/>
<circle cx="262.0" cy="642.6" r="7.588235294117647" fill="#E8C39E"/>
<path d="M 254.41176470588235 641.5882352941177 A 7.588235294117647 7.588235294117647 0 0 1 269.5882352941176 641.5882352941177" fill="none" stroke="#2A2320" stroke-width="3.541176470588235" stroke-linecap="round" stroke-linejoin="round"/>
<path d="M 253.90588235294118 642.6 L 253.90588235294118 652.7176470588236" fill="none" stroke="#2A2320" stroke-width="3.541176470588235" stroke-linecap="round" stroke-linejoin="round"/>
<path d="M 270.0941176470588 642.6 L 270.0941176470588 652.7176470588236" fill="none" stroke="#2A2320" stroke-width="3.541176470588235" stroke-linecap="round" stroke-linejoin="round"/>
<circle cx="259.47058823529414" cy="643.1058823529412" r="0.9105882352941176" fill="#2A2320"/>
<circle cx="264.52941176470586" cy="643.1058823529412" r="0.9105882352941176" fill="#2A2320"/>
<path d="M 259.9764705882353 646.6470588235294 Q 262.0 647.6588235294117 264.0235294117647 646.6470588235294" fill="none" stroke="#8A5A48" stroke-width="0.8094117647058824" stroke-linecap="round" stroke-linejoin="round"/>
<ellipse cx="486" cy="721.4823529411765" rx="10.870588235294118" ry="2.4705882352941178" fill="#1C2B33" opacity="0.10"/>
<path d="M 481.5529411764706 720 L 482.54117647058825 681.36" fill="none" stroke="#3A4A55" stroke-width="4.9411764705882355" stroke-linecap="round" stroke-linejoin="round"/>
<path d="M 490.4470588235294 720 L 489.45882352941175 681.36" fill="none" stroke="#3A4A55" stroke-width="4.9411764705882355" stroke-linecap="round" stroke-linejoin="round"/>
<path d="M 486.0 655.7647058823529 L 486 683.3364705882353" fill="none" stroke="#1F4E5F" stroke-width="11.858823529411765" stroke-linecap="round" stroke-linejoin="round"/>
<path d="M 476.61176470588236 656.2588235294118 L 495.38823529411764 656.2588235294118" fill="none" stroke="#1F4E5F" stroke-width="6.423529411764706" stroke-linecap="round" stroke-linejoin="round"/>
<path d="M 476.61176470588236 657.2470588235294 L 480.56470588235294 679.3835294117647" fill="none" stroke="#1F4E5F" stroke-width="4.447058823529412" stroke-linecap="round" stroke-linejoin="round"/>
<path d="M 495.38823529411764 657.2470588235294 L 491.43529411764706 679.3835294117647" fill="none" stroke="#1F4E5F" stroke-width="4.447058823529412" stroke-linecap="round" stroke-linejoin="round"/>
<circle cx="486" cy="679.3835294117647" r="2.7176470588235295" fill="#6B4229"/>
<path d="M 486.0 653.2941176470588 L 486.0 650.8235294117646" fill="none" stroke="#6B4229" stroke-width="4.9411764705882355" stroke-linecap="round" stroke-linejoin="round"/>
<circle cx="486.0" cy="644.4" r="7.411764705882353" fill="#6B4229"/>
<path d="M 478.5882352941176 643.4117647058823 A 7.411764705882353 7.411764705882353 0 0 1 493.4117647058824 643.4117647058823" fill="none" stroke="#2A2320" stroke-width="3.458823529411765" stroke-linecap="round" stroke-linejoin="round"/>
<circle cx="483.52941176470586" cy="644.8941176470588" r="0.8894117647058825" fill="#2A2320"/>
<circle cx="488.47058823529414" cy="644.8941176470588" r="0.8894117647058825" fill="#2A2320"/>
<path d="M 484.0235294117647 648.3529411764706 Q 486.0 649.3411764705883 487.9764705882353 648.3529411764706" fill="none" stroke="#8A5A48" stroke-width="0.7905882352941177" stroke-linecap="round" stroke-linejoin="round"/>
<ellipse cx="880" cy="721.5176470588235" rx="11.129411764705882" ry="2.5294117647058822" fill="#1C2B33" opacity="0.10"/>
<path d="M 875.4470588235295 720 L 876.4588235294118 680.44" fill="none" stroke="#3A4A55" stroke-width="5.0588235294117645" stroke-linecap="round" stroke-linejoin="round"/>
<path d="M 884.5529411764705 720 L 883.5411764705882 680.44" fill="none" stroke="#3A4A55" stroke-width="5.0588235294117645" stroke-linecap="round" stroke-linejoin="round"/>
<path d="M 880.0 654.2352941176471 L 880 682.4635294117647" fill="none" stroke="#2E6F5E" stroke-width="12.141176470588235" stroke-linecap="round" stroke-linejoin="round"/>
<path d="M 870.3882352941176 654.7411764705882 L 889.6117647058824 654.7411764705882" fill="none" stroke="#2E6F5E" stroke-width="6.576470588235294" stroke-linecap="round" stroke-linejoin="round"/>
<path d="M 870.3882352941176 655.7529411764706 L 868.8705882352941 685.4988235294118" fill="none" stroke="#2E6F5E" stroke-width="4.552941176470588" stroke-linecap="round" stroke-linejoin="round"/>
<circle cx="868.8705882352941" cy="687.0164705882354" r="2.5294117647058822" fill="#8D5A3B"/>
<path d="M 889.6117647058824 655.7529411764706 L 902.7647058823529 653.2235294117647" fill="none" stroke="#2E6F5E" stroke-width="4.552941176470588" stroke-linecap="round" stroke-linejoin="round"/>
<circle cx="904.7882352941176" cy="652.7176470588236" r="2.5294117647058822" fill="#8D5A3B"/>
<path d="M 880.0 651.7058823529412 L 880.0 649.1764705882354" fill="none" stroke="#8D5A3B" stroke-width="5.0588235294117645" stroke-linecap="round" stroke-linejoin="round"/>
<circle cx="880.0" cy="642.6" r="7.588235294117647" fill="#8D5A3B"/>
<path d="M 871.4 644.6235294117647 A 9.588235294117647 9.588235294117647 0 0 1 888.6 644.6235294117647 L 888.6 650.6941176470589 L 871.4 650.6941176470589 Z" fill="#6B7F8C" stroke="none" stroke-width="1.5" stroke-linecap="round" stroke-linejoin="round"/>
<circle cx="877.4705882352941" cy="643.1058823529412" r="0.9105882352941176" fill="#2A2320"/>
<circle cx="882.5294117647059" cy="643.1058823529412" r="0.9105882352941176" fill="#2A2320"/>
<path d="M 877.9764705882353 646.6470588235294 Q 880.0 647.6588235294117 882.0235294117647 646.6470588235294" fill="none" stroke="#8A5A48" stroke-width="0.8094117647058824" stroke-linecap="round" stroke-linejoin="round"/>
</g>
<g id="30_detail">
<circle cx="200" cy="672" r="16" fill="#FFFFFF" stroke="#C86B2B" stroke-width="2.6" opacity="0.96"/>
<text x="200" y="677" font-family="Inter, DejaVu Sans, sans-serif" font-size="12" fill="#C86B2B" text-anchor="middle" font-weight="700" font-style="normal">1</text>
<circle cx="440" cy="676" r="16" fill="#FFFFFF" stroke="#C86B2B" stroke-width="2.6" opacity="0.96"/>
<text x="440" y="681" font-family="Inter, DejaVu Sans, sans-serif" font-size="12" fill="#C86B2B" text-anchor="middle" font-weight="700" font-style="normal">2</text>
<circle cx="712" cy="700" r="16" fill="#FFFFFF" stroke="#C86B2B" stroke-width="2.6" opacity="0.96"/>
<text x="712" y="705" font-family="Inter, DejaVu Sans, sans-serif" font-size="12" fill="#C86B2B" text-anchor="middle" font-weight="700" font-style="normal">3</text>
<circle cx="1000" cy="690" r="16" fill="#FFFFFF" stroke="#C86B2B" stroke-width="2.6" opacity="0.96"/>
<text x="1000" y="695" font-family="Inter, DejaVu Sans, sans-serif" font-size="12" fill="#C86B2B" text-anchor="middle" font-weight="700" font-style="normal">4</text>
<circle cx="1300" cy="660" r="16" fill="#FFFFFF" stroke="#C86B2B" stroke-width="2.6" opacity="0.96"/>
<text x="1300" y="665" font-family="Inter, DejaVu Sans, sans-serif" font-size="12" fill="#C86B2B" text-anchor="middle" font-weight="700" font-style="normal">5</text>
<circle cx="160" cy="380" r="16" fill="#FFFFFF" stroke="#C86B2B" stroke-width="2.6" opacity="0.96"/>
<text x="160" y="385" font-family="Inter, DejaVu Sans, sans-serif" font-size="12" fill="#C86B2B" text-anchor="middle" font-weight="700" font-style="normal">6</text>
<circle cx="1420" cy="640" r="16" fill="#FFFFFF" stroke="#C86B2B" stroke-width="2.6" opacity="0.96"/>
<text x="1420" y="645" font-family="Inter, DejaVu Sans, sans-serif" font-size="12" fill="#C86B2B" text-anchor="middle" font-weight="700" font-style="normal">7</text>
<circle cx="600" cy="710" r="16" fill="#FFFFFF" stroke="#C86B2B" stroke-width="2.6" opacity="0.96"/>
<text x="600" y="715" font-family="Inter, DejaVu Sans, sans-serif" font-size="12" fill="#C86B2B" text-anchor="middle" font-weight="700" font-style="normal">8</text>
</g>
<g id="40_callouts">
<text x="800.0" y="46" font-family="Inter, DejaVu Sans, sans-serif" font-size="30" fill="#1F4E5F" text-anchor="middle" font-weight="700" font-style="normal">Mariam's workshop, Thursday, 14.20</text>
<text x="800.0" y="72" font-family="Inter, DejaVu Sans, sans-serif" font-size="15" fill="#55646D" text-anchor="middle" font-weight="400" font-style="normal">Ground floor, Jengo House. Forty jackets are due in six weeks and the sample is still moving.</text>
<rect x="1354" y="180.0" width="174" height="26" rx="4" fill="#FFFFFF" opacity="0.88"/>
<text x="1524" y="199.0" font-family="Inter, DejaVu Sans, sans-serif" font-size="12" fill="#55646D" text-anchor="end" font-weight="600" font-style="normal">storage</text>
<rect x="1354" y="330.0" width="174" height="26" rx="4" fill="#FFFFFF" opacity="0.88"/>
<text x="1524" y="349.0" font-family="Inter, DejaVu Sans, sans-serif" font-size="12" fill="#55646D" text-anchor="end" font-weight="600" font-style="normal">studios</text>
<rect x="1354" y="480.0" width="174" height="26" rx="4" fill="#FFFFFF" opacity="0.88"/>
<text x="1524" y="499.0" font-family="Inter, DejaVu Sans, sans-serif" font-size="12" fill="#55646D" text-anchor="end" font-weight="600" font-style="normal">the workspace</text>
<rect x="1354" y="630.0" width="174" height="26" rx="4" fill="#FFFFFF" opacity="0.88"/>
<text x="1524" y="649.0" font-family="Inter, DejaVu Sans, sans-serif" font-size="12" fill="#55646D" text-anchor="end" font-weight="600" font-style="normal">MARIAM — ground floor</text>
<line x1="262" y1="726" x2="262" y2="754" stroke="#55646D" stroke-width="1.2" stroke-linecap="round" opacity="0.7"/>
<text x="262" y="770" font-family="Inter, DejaVu Sans, sans-serif" font-size="12" fill="#55646D" text-anchor="middle" font-weight="400" font-style="normal">Mariam at the cutting table</text>
<line x1="486" y1="726" x2="486" y2="784" stroke="#55646D" stroke-width="1.2" stroke-linecap="round" opacity="0.7"/>
<text x="486" y="800" font-family="Inter, DejaVu Sans, sans-serif" font-size="12" fill="#55646D" text-anchor="middle" font-weight="400" font-style="normal">machinist</text>
<line x1="750" y1="726" x2="750" y2="754" stroke="#55646D" stroke-width="1.2" stroke-linecap="round" opacity="0.7"/>
<text x="750" y="770" font-family="Inter, DejaVu Sans, sans-serif" font-size="12" fill="#55646D" text-anchor="middle" font-weight="400" font-style="normal">bolts of cloth</text>
<line x1="880" y1="726" x2="880" y2="784" stroke="#55646D" stroke-width="1.2" stroke-linecap="round" opacity="0.7"/>
<text x="880" y="800" font-family="Inter, DejaVu Sans, sans-serif" font-size="12" fill="#55646D" text-anchor="middle" font-weight="400" font-style="normal">checking the sample</text>
<line x1="1090" y1="726" x2="1090" y2="754" stroke="#55646D" stroke-width="1.2" stroke-linecap="round" opacity="0.7"/>
<text x="1090" y="770" font-family="Inter, DejaVu Sans, sans-serif" font-size="12" fill="#55646D" text-anchor="middle" font-weight="400" font-style="normal">packed and waiting</text>
<line x1="1420" y1="726" x2="1420" y2="784" stroke="#55646D" stroke-width="1.2" stroke-linecap="round" opacity="0.7"/>
<text x="1420" y="800" font-family="Inter, DejaVu Sans, sans-serif" font-size="12" fill="#55646D" text-anchor="middle" font-weight="400" font-style="normal">the board</text>
</g>
</svg>
